<svg xmlns="http://www.w3.org/2000/svg" xmlns:xlink="http://www.w3.org/1999/xlink" width="500" zoomAndPan="magnify" viewBox="0 0 375 149.999998" height="200" preserveAspectRatio="xMidYMid meet" version="1.0"><defs><g/><clipPath id="id1"><path d="M 15 17.59375 L 128.25 17.59375 L 128.25 132.34375 L 15 132.34375 Z M 15 17.59375 " clip-rule="nonzero"/></clipPath></defs><g fill="#ffffff" fill-opacity="1"><g transform="translate(103.539007, 114.551035)"><g><path d="M 37.328125 -29.84375 C 37.328125 -28.664062 37.15625 -27.609375 36.8125 -26.671875 C 36.46875 -25.734375 35.988281 -24.898438 35.375 -24.171875 C 34.769531 -23.441406 34.0625 -22.789062 33.25 -22.21875 C 32.4375 -21.65625 31.539062 -21.128906 30.5625 -20.640625 C 31.007812 -20.472656 31.535156 -20.21875 32.140625 -19.875 C 32.753906 -19.53125 33.34375 -19.050781 33.90625 -18.4375 C 34.476562 -17.832031 34.957031 -17.050781 35.34375 -16.09375 C 35.726562 -15.144531 35.921875 -13.984375 35.921875 -12.609375 C 35.921875 -10.773438 35.535156 -9.085938 34.765625 -7.546875 C 33.992188 -6.003906 32.847656 -4.675781 31.328125 -3.5625 C 29.804688 -2.445312 27.9375 -1.570312 25.71875 -0.9375 C 23.507812 -0.3125 20.960938 0 18.078125 0 L 0 0 L 8.21875 -38.671875 L 24.234375 -38.671875 C 25.816406 -38.671875 27.390625 -38.554688 28.953125 -38.328125 C 30.515625 -38.109375 31.914062 -37.671875 33.15625 -37.015625 C 34.394531 -36.367188 35.398438 -35.46875 36.171875 -34.3125 C 36.941406 -33.15625 37.328125 -31.664062 37.328125 -29.84375 Z M 20.765625 -22.46875 C 21.660156 -22.46875 22.421875 -22.726562 23.046875 -23.25 C 23.671875 -23.78125 24.1875 -24.441406 24.59375 -25.234375 C 25 -26.023438 25.300781 -26.878906 25.5 -27.796875 C 25.707031 -28.710938 25.8125 -29.535156 25.8125 -30.265625 C 25.8125 -31.441406 25.535156 -32.445312 24.984375 -33.28125 C 24.441406 -34.113281 23.582031 -34.53125 22.40625 -34.53125 L 20.578125 -34.53125 L 17.96875 -22.46875 Z M 16.375 -3.84375 C 17.59375 -3.84375 18.609375 -4.1875 19.421875 -4.875 C 20.234375 -5.5625 20.898438 -6.410156 21.421875 -7.421875 C 21.953125 -8.441406 22.328125 -9.507812 22.546875 -10.625 C 22.773438 -11.738281 22.890625 -12.722656 22.890625 -13.578125 C 22.890625 -14.992188 22.59375 -16.117188 22 -16.953125 C 21.414062 -17.785156 20.476562 -18.203125 19.1875 -18.203125 L 16.921875 -18.203125 L 13.9375 -3.84375 Z M 16.375 -3.84375 "/></g></g></g><g fill="#ffffff" fill-opacity="1"><g transform="translate(141.411438, 114.551035)"><g><path d="M 13.15625 0 L 0 0 L 8.21875 -38.671875 L 21.4375 -38.671875 Z M 13.15625 0 "/></g></g></g><g fill="#ffffff" fill-opacity="1"><g transform="translate(161.26098, 114.551035)"><g><path d="M 37.9375 -29.46875 C 37.9375 -27.070312 37.265625 -24.859375 35.921875 -22.828125 C 34.585938 -20.804688 32.375 -19.265625 29.28125 -18.203125 L 36.359375 0 L 22.765625 0 L 17.421875 -16.859375 L 16.75 -16.859375 L 13.15625 0 L 0 0 L 8.21875 -38.671875 L 24.234375 -38.671875 C 26.097656 -38.671875 27.863281 -38.554688 29.53125 -38.328125 C 31.195312 -38.109375 32.648438 -37.660156 33.890625 -36.984375 C 35.128906 -36.316406 36.113281 -35.382812 36.84375 -34.1875 C 37.570312 -32.988281 37.9375 -31.414062 37.9375 -29.46875 Z M 20.390625 -20.765625 C 21.453125 -20.765625 22.359375 -21.117188 23.109375 -21.828125 C 23.859375 -22.535156 24.46875 -23.394531 24.9375 -24.40625 C 25.40625 -25.425781 25.738281 -26.515625 25.9375 -27.671875 C 26.144531 -28.828125 26.25 -29.832031 26.25 -30.6875 C 26.25 -31.738281 26.0625 -32.640625 25.6875 -33.390625 C 25.320312 -34.148438 24.535156 -34.53125 23.328125 -34.53125 L 20.578125 -34.53125 L 17.53125 -20.765625 Z M 20.390625 -20.765625 "/></g></g></g><g fill="#ffffff" fill-opacity="1"><g transform="translate(199.803182, 114.551035)"><g><path d="M 8.21875 -38.671875 L 21.4375 -38.671875 L 14.25 -5.109375 L 26.609375 -5.109375 L 25.578125 0 L 0 0 Z M 8.21875 -38.671875 "/></g></g></g><g fill="#ffffff" fill-opacity="1"><g transform="translate(229.151281, 114.551035)"><g><path d="M 21.609375 -17.65625 L 37.390625 -17.65625 L 33.859375 0 L 26.671875 0 L 25.515625 -3.890625 L 25.265625 -3.890625 C 24.210938 -2.671875 22.960938 -1.632812 21.515625 -0.78125 C 20.078125 0.0625 18.203125 0.484375 15.890625 0.484375 C 14.109375 0.484375 12.394531 0.191406 10.75 -0.390625 C 9.101562 -0.984375 7.640625 -1.914062 6.359375 -3.1875 C 5.078125 -4.46875 4.050781 -6.144531 3.28125 -8.21875 C 2.507812 -10.289062 2.125 -12.785156 2.125 -15.703125 C 2.125 -18.867188 2.609375 -21.875 3.578125 -24.71875 C 4.554688 -27.5625 6.019531 -30.066406 7.96875 -32.234375 C 9.925781 -34.410156 12.363281 -36.128906 15.28125 -37.390625 C 18.207031 -38.648438 21.617188 -39.28125 25.515625 -39.28125 C 28.515625 -39.28125 31.128906 -38.929688 33.359375 -38.234375 C 35.597656 -37.546875 37.710938 -36.773438 39.703125 -35.921875 L 37.390625 -24.109375 L 27.09375 -24.109375 C 27.132812 -24.554688 27.195312 -25.082031 27.28125 -25.6875 C 27.363281 -26.300781 27.421875 -26.941406 27.453125 -27.609375 C 27.492188 -28.285156 27.535156 -28.945312 27.578125 -29.59375 C 27.617188 -30.238281 27.640625 -30.804688 27.640625 -31.296875 C 27.640625 -31.617188 27.617188 -31.992188 27.578125 -32.421875 C 27.535156 -32.847656 27.429688 -33.265625 27.265625 -33.671875 C 27.109375 -34.078125 26.867188 -34.410156 26.546875 -34.671875 C 26.222656 -34.941406 25.753906 -35.078125 25.140625 -35.078125 C 24.085938 -35.078125 23.125 -34.640625 22.25 -33.765625 C 21.382812 -32.890625 20.601562 -31.726562 19.90625 -30.28125 C 19.21875 -28.84375 18.617188 -27.210938 18.109375 -25.390625 C 17.609375 -23.566406 17.179688 -21.707031 16.828125 -19.8125 C 16.484375 -17.925781 16.21875 -16.078125 16.03125 -14.265625 C 15.851562 -12.460938 15.765625 -10.894531 15.765625 -9.5625 C 15.765625 -9.15625 15.785156 -8.644531 15.828125 -8.03125 C 15.867188 -7.425781 16 -6.828125 16.21875 -6.234375 C 16.445312 -5.648438 16.773438 -5.144531 17.203125 -4.71875 C 17.628906 -4.289062 18.25 -4.078125 19.0625 -4.078125 C 20.394531 -4.078125 21.691406 -4.804688 22.953125 -6.265625 C 24.210938 -7.734375 25.164062 -10.171875 25.8125 -13.578125 L 20.703125 -13.578125 Z M 21.609375 -17.65625 "/></g></g></g><g fill="#ffffff" fill-opacity="1"><g transform="translate(268.241486, 114.551035)"><g><path d="M 23.6875 -14.609375 L 20.578125 0 L 7.375 0 L 10.71875 -15.65625 L 4.75 -38.671875 L 19.359375 -38.671875 L 23.5 -23.375 L 32.640625 -38.671875 L 39.21875 -38.671875 Z M 23.6875 -14.609375 "/></g></g></g><g fill="#ffffff" fill-opacity="1"><g transform="translate(302.947736, 114.551035)"><g><path d="M 44.6875 0 L 31.171875 0 L 36.78125 -26.3125 L 22.34375 0 L 14.0625 0 L 11.328125 -27.21875 L 5.484375 0 L 0 0 L 8.21875 -38.671875 L 23.75 -38.671875 L 25.640625 -16.859375 L 37.328125 -38.671875 L 52.96875 -38.671875 Z M 44.6875 0 "/></g></g></g><path stroke-linecap="butt" transform="matrix(4.506401, 0, 0, 4.488311, 101.248248, 130.134736)" fill="none" stroke-linejoin="miter" d="M 0.000388865 -0.00042856 L 56.753861 -0.00042856 " stroke="#fdcb01" stroke-width="1" stroke-opacity="1" stroke-miterlimit="4"/><g clip-path="url(#id1)"><path fill="#fdcb01" d="M 63.214844 39.539062 C 64.542969 40.941406 65.875 42.347656 67.203125 43.75 C 67.371094 43.929688 67.550781 44.125 67.597656 44.363281 C 67.640625 44.585938 67.570312 44.816406 67.574219 45.042969 C 67.582031 45.554688 67.960938 45.972656 68.320312 46.339844 C 68.765625 46.800781 69.214844 47.257812 69.660156 47.71875 C 69.945312 48.007812 70.238281 48.316406 70.355469 48.707031 C 70.507812 49.234375 70.304688 49.804688 70.371094 50.351562 C 70.417969 50.726562 70.589844 51.078125 70.753906 51.421875 C 71.699219 53.429688 72.414062 55.546875 72.875 57.71875 C 72.984375 58.234375 73.070312 58.8125 72.792969 59.261719 C 72.542969 59.664062 72.070312 59.851562 71.691406 60.136719 C 71.3125 60.421875 71.011719 60.960938 71.277344 61.351562 C 71.398438 61.527344 71.597656 61.621094 71.792969 61.703125 C 73.855469 62.566406 76.101562 62.863281 78.320312 63.148438 C 78.710938 63.199219 79.109375 63.253906 79.503906 63.207031 C 80.195312 63.128906 80.84375 62.738281 81.238281 62.164062 C 82.863281 59.8125 85.175781 58.007812 87.980469 57.433594 C 91.496094 56.71875 95.207031 58.007812 98.703125 57.191406 C 100.179688 55.378906 102.199219 53.804688 104.394531 53.007812 C 105.933594 52.453125 107.652344 52.195312 109.195312 52.734375 C 109.570312 52.863281 109.941406 53.042969 110.335938 53.0625 C 110.808594 53.085938 111.257812 52.882812 111.6875 52.683594 C 112.175781 52.460938 112.664062 52.234375 113.152344 52.011719 C 112.523438 48.992188 111.863281 45.707031 111.96875 42.625 C 111.996094 41.84375 112.066406 41.058594 112.03125 40.277344 C 112.015625 39.847656 111.964844 39.417969 111.902344 38.988281 C 111.640625 37.171875 111.179688 35.386719 110.53125 33.667969 C 109.816406 31.773438 108.875 29.96875 107.933594 28.171875 C 107.71875 27.757812 106.988281 27.683594 106.515625 27.710938 C 106.046875 27.734375 105.589844 27.871094 105.121094 27.910156 C 103.28125 28.070312 101.601562 26.8125 99.761719 26.65625 C 98.941406 26.585938 98.121094 26.738281 97.3125 26.886719 C 97.132812 26.917969 96.945312 26.949219 96.777344 26.878906 C 96.589844 26.804688 96.46875 26.628906 96.363281 26.453125 C 96.15625 26.105469 95.976562 25.738281 95.824219 25.363281 C 95.730469 25.117188 95.648438 24.820312 95.808594 24.613281 C 95.882812 24.507812 96.003906 24.449219 96.082031 24.347656 C 96.285156 24.078125 96.101562 23.695312 96.15625 23.363281 C 96.1875 23.164062 96.308594 22.988281 96.417969 22.820312 C 97.070312 21.835938 97.585938 20.765625 97.953125 19.648438 C 98.109375 19.175781 98.246094 18.679688 98.570312 18.308594 C 99.078125 17.726562 99.917969 17.578125 100.683594 17.59375 C 102.273438 17.621094 103.847656 18.21875 105.054688 19.25 C 105.382812 19.527344 105.679688 19.832031 106 20.113281 C 106.277344 20.355469 106.574219 20.578125 106.867188 20.796875 C 107.5625 21.324219 108.261719 21.847656 108.957031 22.375 C 109.488281 22.773438 110.015625 23.171875 110.546875 23.574219 C 111.21875 24.078125 111.894531 24.585938 112.628906 24.996094 C 113.933594 25.726562 114.199219 27.3125 114.953125 28.601562 C 115.414062 29.386719 115.980469 29.925781 116.511719 30.664062 C 117.5 32.035156 118.484375 33.410156 119.472656 34.78125 C 120.128906 35.691406 120.785156 36.601562 121.40625 37.535156 C 124.738281 42.5625 127.023438 48.277344 128.074219 54.214844 C 128.199219 54.933594 127.839844 55.636719 127.429688 56.246094 C 127.019531 56.855469 126.460938 57.347656 125.921875 57.851562 C 123.179688 60.398438 120.761719 63.277344 118.03125 65.839844 C 115.296875 68.402344 112.179688 70.683594 108.574219 71.710938 C 105.351562 72.628906 101.742188 72.558594 98.972656 74.441406 C 95.339844 76.910156 96.585938 82.820312 94.953125 86.894531 C 94.230469 88.691406 93.226562 90.378906 92.652344 92.230469 C 91.53125 95.855469 90.761719 99.617188 89.175781 103.0625 C 88.589844 104.332031 87.917969 105.570312 87.542969 106.917969 C 86.808594 109.558594 87.273438 112.378906 87.941406 115.035156 C 88.609375 117.695312 89.476562 120.339844 89.542969 123.082031 C 89.621094 126.269531 91.300781 129.257812 92.179688 132.324219 L 50.539062 132.324219 C 51.261719 130.113281 52.050781 128.121094 53.003906 125.996094 C 53.285156 125.375 53.578125 124.746094 53.714844 124.074219 C 53.84375 123.445312 53.832031 122.796875 53.875 122.152344 C 54.09375 118.789062 55.792969 115.554688 55.441406 112.203125 C 55.3125 110.964844 55.515625 109.738281 55.105469 108.566406 C 54.695312 107.390625 54.074219 106.304688 53.453125 105.226562 C 51.902344 102.53125 50.332031 99.828125 48.339844 97.441406 C 47.808594 98.144531 47.191406 98.855469 46.660156 99.558594 C 46.128906 100.265625 45.59375 100.972656 45.03125 101.652344 C 42.753906 104.402344 39.945312 106.742188 36.730469 108.296875 C 34.878906 109.191406 32.894531 109.828125 31.140625 110.898438 C 30.304688 111.410156 29.523438 112.015625 28.621094 112.394531 C 27.601562 112.824219 26.480469 112.941406 25.375 112.976562 C 23.640625 113.027344 21.8125 112.859375 20.363281 111.902344 C 19.792969 111.523438 19.550781 110.839844 19.242188 110.230469 C 18.839844 109.433594 18.4375 108.636719 18.039062 107.839844 C 17.664062 107.09375 17.289062 106.351562 16.976562 105.578125 C 16.054688 103.292969 15.710938 100.824219 15.472656 98.375 C 15.28125 96.386719 15.15625 94.394531 15.097656 92.398438 C 15.023438 89.867188 16.097656 87.308594 16.300781 84.785156 C 16.464844 82.753906 16.144531 80.65625 16.761719 78.714844 C 17.25 77.171875 17.847656 75.527344 18.667969 74.132812 C 20.390625 71.210938 22.113281 68.285156 23.835938 65.363281 C 23.960938 65.152344 24.085938 64.941406 24.273438 64.785156 C 24.664062 64.457031 25.246094 64.453125 25.730469 64.613281 C 26.214844 64.773438 26.640625 65.074219 27.09375 65.308594 C 28.21875 65.902344 29.523438 66.117188 30.613281 66.78125 C 30.785156 66.886719 30.957031 67.007812 31.054688 67.1875 C 31.160156 67.378906 31.164062 67.605469 31.222656 67.816406 C 31.34375 68.265625 31.699219 68.605469 31.972656 68.980469 C 32.246094 69.355469 32.445312 69.863281 32.230469 70.273438 C 32.140625 70.441406 31.988281 70.570312 31.839844 70.6875 C 31.164062 71.222656 30.398438 71.675781 29.878906 72.367188 C 29.601562 72.734375 29.40625 73.15625 29.144531 73.53125 C 27.769531 75.484375 24.785156 75.90625 23.652344 78.011719 C 23.222656 78.808594 23.128906 79.742188 23.113281 80.648438 C 23.082031 82.503906 23.34375 84.359375 23.878906 86.128906 C 24.285156 87.46875 25.164062 88.492188 25.894531 89.6875 C 26.246094 90.261719 26.605469 90.832031 27.019531 91.359375 C 27.339844 91.769531 27.691406 92.152344 27.976562 92.585938 C 28.328125 93.132812 28.566406 93.746094 28.792969 94.359375 C 29.222656 93.539062 29.453125 92.601562 29.738281 91.71875 C 30.164062 90.414062 31.027344 89.28125 32.039062 88.347656 C 33.050781 87.417969 34.214844 86.667969 35.378906 85.929688 C 35.324219 84.109375 36.199219 82.40625 37.015625 80.773438 C 37.527344 79.757812 38.085938 78.761719 38.761719 77.84375 C 41.703125 73.863281 46.953125 71.722656 51.84375 72.511719 C 52.246094 72.578125 52.71875 72.375 53.003906 72.09375 C 54.105469 71.007812 55.207031 69.921875 56.304688 68.835938 C 56.667969 68.480469 57.03125 68.121094 57.289062 67.6875 C 57.835938 66.765625 57.839844 65.597656 57.535156 64.570312 C 57.234375 63.539062 56.648438 62.621094 56.0625 61.71875 C 55.675781 61.125 55.277344 60.523438 54.710938 60.089844 C 54.34375 59.808594 53.914062 59.609375 53.511719 59.371094 C 51.957031 58.445312 50.769531 56.910156 49.0625 56.304688 C 46.742188 55.484375 44.960938 53.214844 44.109375 50.910156 C 43.769531 49.996094 43.632812 49.003906 43.714844 48.027344 C 43.773438 47.347656 43.933594 46.683594 44.09375 46.023438 C 44.316406 45.09375 44.542969 44.164062 44.765625 43.234375 C 44.851562 42.878906 44.9375 42.519531 45.097656 42.191406 C 45.425781 41.515625 46.035156 41.023438 46.625 40.554688 C 47.921875 39.527344 49.234375 38.511719 50.683594 37.714844 C 52.132812 36.917969 53.730469 36.34375 55.382812 36.265625 C 56.195312 36.226562 57.003906 36.308594 57.804688 36.421875 C 58.828125 36.5625 59.859375 36.761719 60.792969 37.199219 C 61.730469 37.636719 62.503906 38.789062 63.214844 39.539062 Z M 63.214844 39.539062 " fill-opacity="1" fill-rule="nonzero"/></g></svg>