<svg xmlns="http://www.w3.org/2000/svg" xmlns:xlink="http://www.w3.org/1999/xlink" width="500" zoomAndPan="magnify" viewBox="0 0 375 149.999998" height="200" preserveAspectRatio="xMidYMid meet" version="1.0"><defs><g/></defs><g fill="#fdcb01" fill-opacity="1"><g transform="translate(14.328646, 103.499996)"><g><path d="M 51.546875 -41.203125 C 51.546875 -39.578125 51.304688 -38.117188 50.828125 -36.828125 C 50.359375 -35.546875 49.703125 -34.398438 48.859375 -33.390625 C 48.015625 -32.378906 47.03125 -31.476562 45.90625 -30.6875 C 44.789062 -29.90625 43.5625 -29.175781 42.21875 -28.5 C 42.832031 -28.28125 43.554688 -27.929688 44.390625 -27.453125 C 45.234375 -26.972656 46.046875 -26.3125 46.828125 -25.46875 C 47.617188 -24.632812 48.28125 -23.554688 48.8125 -22.234375 C 49.34375 -20.921875 49.609375 -19.3125 49.609375 -17.40625 C 49.609375 -14.882812 49.078125 -12.554688 48.015625 -10.421875 C 46.953125 -8.296875 45.367188 -6.460938 43.265625 -4.921875 C 41.160156 -3.378906 38.582031 -2.171875 35.53125 -1.296875 C 32.476562 -0.429688 28.957031 0 24.96875 0 L 0 0 L 11.359375 -53.40625 L 33.46875 -53.40625 C 35.65625 -53.40625 37.828125 -53.25 39.984375 -52.9375 C 42.140625 -52.625 44.070312 -52.019531 45.78125 -51.125 C 47.5 -50.226562 48.890625 -48.976562 49.953125 -47.375 C 51.015625 -45.78125 51.546875 -43.722656 51.546875 -41.203125 Z M 28.671875 -31.03125 C 29.910156 -31.03125 30.960938 -31.394531 31.828125 -32.125 C 32.703125 -32.851562 33.414062 -33.765625 33.96875 -34.859375 C 34.53125 -35.953125 34.953125 -37.128906 35.234375 -38.390625 C 35.515625 -39.648438 35.65625 -40.785156 35.65625 -41.796875 C 35.65625 -43.421875 35.273438 -44.804688 34.515625 -45.953125 C 33.765625 -47.109375 32.578125 -47.6875 30.953125 -47.6875 L 28.421875 -47.6875 L 24.8125 -31.03125 Z M 22.625 -5.296875 C 24.300781 -5.296875 25.695312 -5.769531 26.8125 -6.71875 C 27.9375 -7.675781 28.863281 -8.851562 29.59375 -10.25 C 30.320312 -11.65625 30.84375 -13.128906 31.15625 -14.671875 C 31.46875 -16.210938 31.625 -17.570312 31.625 -18.75 C 31.625 -20.71875 31.21875 -22.273438 30.40625 -23.421875 C 29.59375 -24.566406 28.285156 -25.140625 26.484375 -25.140625 L 23.375 -25.140625 L 19.25 -5.296875 Z M 22.625 -5.296875 "/></g></g></g><g fill="#fdcb01" fill-opacity="1"><g transform="translate(66.627685, 103.499996)"><g><path d="M 18.171875 0 L 0 0 L 11.359375 -53.40625 L 29.59375 -53.40625 Z M 18.171875 0 "/></g></g></g><g fill="#fdcb01" fill-opacity="1"><g transform="translate(94.038434, 103.499996)"><g><path d="M 52.390625 -40.703125 C 52.390625 -37.390625 51.460938 -34.332031 49.609375 -31.53125 C 47.765625 -28.726562 44.710938 -26.597656 40.453125 -25.140625 L 50.203125 0 L 31.453125 0 L 24.046875 -23.296875 L 23.125 -23.296875 L 18.171875 0 L 0 0 L 11.359375 -53.40625 L 33.46875 -53.40625 C 36.050781 -53.40625 38.488281 -53.25 40.78125 -52.9375 C 43.082031 -52.625 45.085938 -52.003906 46.796875 -51.078125 C 48.503906 -50.160156 49.863281 -48.875 50.875 -47.21875 C 51.882812 -45.5625 52.390625 -43.390625 52.390625 -40.703125 Z M 28.171875 -28.671875 C 29.628906 -28.671875 30.875 -29.160156 31.90625 -30.140625 C 32.945312 -31.128906 33.789062 -32.320312 34.4375 -33.71875 C 35.082031 -35.125 35.546875 -36.625 35.828125 -38.21875 C 36.109375 -39.820312 36.25 -41.210938 36.25 -42.390625 C 36.25 -43.835938 35.992188 -45.082031 35.484375 -46.125 C 34.984375 -47.164062 33.890625 -47.6875 32.203125 -47.6875 L 28.421875 -47.6875 L 24.21875 -28.671875 Z M 28.171875 -28.671875 "/></g></g></g><g fill="#fdcb01" fill-opacity="1"><g transform="translate(147.262385, 103.499996)"><g><path d="M 11.359375 -53.40625 L 29.59375 -53.40625 L 19.671875 -7.0625 L 36.75 -7.0625 L 35.3125 0 L 0 0 Z M 11.359375 -53.40625 "/></g></g></g><g fill="#000000" fill-opacity="1"><g transform="translate(187.789573, 103.499996)"><g><path d="M 29.859375 -24.390625 L 51.640625 -24.390625 L 46.75 0 L 36.828125 0 L 35.234375 -5.375 L 34.90625 -5.375 C 33.445312 -3.695312 31.71875 -2.269531 29.71875 -1.09375 C 27.726562 0.0820312 25.140625 0.671875 21.953125 0.671875 C 19.484375 0.671875 17.113281 0.265625 14.84375 -0.546875 C 12.570312 -1.359375 10.550781 -2.644531 8.78125 -4.40625 C 7.019531 -6.175781 5.601562 -8.488281 4.53125 -11.34375 C 3.46875 -14.207031 2.9375 -17.660156 2.9375 -21.703125 C 2.9375 -26.066406 3.609375 -30.210938 4.953125 -34.140625 C 6.304688 -38.066406 8.328125 -41.53125 11.015625 -44.53125 C 13.703125 -47.53125 17.0625 -49.894531 21.09375 -51.625 C 25.132812 -53.363281 29.847656 -54.234375 35.234375 -54.234375 C 39.378906 -54.234375 42.992188 -53.753906 46.078125 -52.796875 C 49.160156 -51.847656 52.078125 -50.785156 54.828125 -49.609375 L 51.640625 -33.296875 L 37.421875 -33.296875 C 37.472656 -33.910156 37.554688 -34.640625 37.671875 -35.484375 C 37.785156 -36.328125 37.867188 -37.210938 37.921875 -38.140625 C 37.984375 -39.066406 38.039062 -39.976562 38.09375 -40.875 C 38.144531 -41.769531 38.171875 -42.550781 38.171875 -43.21875 C 38.171875 -43.664062 38.144531 -44.179688 38.09375 -44.765625 C 38.039062 -45.359375 37.898438 -45.9375 37.671875 -46.5 C 37.453125 -47.0625 37.113281 -47.523438 36.65625 -47.890625 C 36.207031 -48.253906 35.566406 -48.4375 34.734375 -48.4375 C 33.273438 -48.4375 31.941406 -47.832031 30.734375 -46.625 C 29.523438 -45.425781 28.441406 -43.828125 27.484375 -41.828125 C 26.535156 -39.835938 25.710938 -37.582031 25.015625 -35.0625 C 24.316406 -32.539062 23.726562 -29.976562 23.25 -27.375 C 22.769531 -24.769531 22.40625 -22.21875 22.15625 -19.71875 C 21.90625 -17.226562 21.78125 -15.054688 21.78125 -13.203125 C 21.78125 -12.640625 21.804688 -11.9375 21.859375 -11.09375 C 21.921875 -10.257812 22.101562 -9.4375 22.40625 -8.625 C 22.71875 -7.8125 23.164062 -7.109375 23.75 -6.515625 C 24.34375 -5.929688 25.203125 -5.640625 26.328125 -5.640625 C 28.171875 -5.640625 29.960938 -6.644531 31.703125 -8.65625 C 33.441406 -10.675781 34.757812 -14.039062 35.65625 -18.75 L 28.59375 -18.75 Z M 29.859375 -24.390625 "/></g></g></g><g fill="#000000" fill-opacity="1"><g transform="translate(241.770253, 103.499996)"><g><path d="M 32.71875 -20.1875 L 28.421875 0 L 10.171875 0 L 14.796875 -21.609375 L 6.5625 -53.40625 L 26.734375 -53.40625 L 32.453125 -32.296875 L 45.078125 -53.40625 L 54.15625 -53.40625 Z M 32.71875 -20.1875 "/></g></g></g><g fill="#000000" fill-opacity="1"><g transform="translate(289.69703, 103.499996)"><g><path d="M 61.71875 0 L 43.0625 0 L 50.796875 -36.328125 L 30.859375 0 L 19.421875 0 L 15.640625 -37.59375 L 7.5625 0 L 0 0 L 11.359375 -53.40625 L 32.796875 -53.40625 L 35.40625 -23.296875 L 51.546875 -53.40625 L 73.15625 -53.40625 Z M 61.71875 0 "/></g></g></g><path stroke-linecap="butt" transform="matrix(7.496632, 0, 0, 7.511737, 4.790916, 112.897399)" fill="none" stroke-linejoin="miter" d="M -0.000247208 0.000138195 L 48.722672 0.000138195 " stroke="#fdcb01" stroke-width="1" stroke-opacity="1" stroke-miterlimit="4"/></svg>