<svg xmlns="http://www.w3.org/2000/svg" xmlns:xlink="http://www.w3.org/1999/xlink" width="500" zoomAndPan="magnify" viewBox="0 0 375 374.999991" height="500" preserveAspectRatio="xMidYMid meet" version="1.0"><defs><clipPath id="id1"><path d="M 7.417969 4.761719 L 367 4.761719 L 367 370 L 7.417969 370 Z M 7.417969 4.761719 " clip-rule="nonzero"/></clipPath></defs><g clip-path="url(#id1)"><path fill="#000000" d="M 160.683594 74.617188 C 164.910156 79.085938 169.132812 83.554688 173.359375 88.023438 C 173.898438 88.597656 174.460938 89.210938 174.613281 89.980469 C 174.753906 90.6875 174.527344 91.414062 174.539062 92.132812 C 174.5625 93.761719 175.773438 95.101562 176.910156 96.269531 C 178.332031 97.730469 179.753906 99.1875 181.175781 100.648438 C 182.078125 101.578125 183.015625 102.558594 183.378906 103.800781 C 183.871094 105.480469 183.222656 107.289062 183.433594 109.027344 C 183.578125 110.234375 184.125 111.347656 184.644531 112.445312 C 187.65625 118.832031 189.929688 125.570312 191.390625 132.480469 C 191.742188 134.125 192.015625 135.960938 191.128906 137.390625 C 190.335938 138.671875 188.832031 139.277344 187.628906 140.183594 C 186.425781 141.089844 185.46875 142.804688 186.316406 144.046875 C 186.691406 144.601562 187.335938 144.90625 187.957031 145.164062 C 194.507812 147.917969 201.652344 148.859375 208.699219 149.773438 C 209.949219 149.933594 211.210938 150.097656 212.460938 149.953125 C 214.660156 149.703125 216.726562 148.460938 217.980469 146.640625 C 223.140625 139.148438 230.496094 133.402344 239.410156 131.582031 C 250.589844 129.296875 262.390625 133.402344 273.5 130.808594 C 278.1875 125.042969 284.609375 120.027344 291.59375 117.492188 C 296.480469 115.71875 301.949219 114.898438 306.855469 116.613281 C 308.046875 117.03125 309.21875 117.597656 310.484375 117.660156 C 311.984375 117.738281 313.414062 117.09375 314.78125 116.460938 C 316.328125 115.746094 317.878906 115.03125 319.429688 114.3125 C 317.429688 104.703125 315.34375 94.25 315.671875 84.4375 C 315.753906 81.949219 315.984375 79.457031 315.875 76.96875 C 315.816406 75.59375 315.65625 74.226562 315.460938 72.867188 C 314.628906 67.085938 313.164062 61.398438 311.101562 55.933594 C 308.824219 49.898438 305.835938 44.160156 302.847656 38.441406 C 302.15625 37.117188 299.832031 36.882812 298.339844 36.964844 C 296.84375 37.046875 295.390625 37.472656 293.898438 37.605469 C 288.054688 38.117188 282.71875 34.113281 276.871094 33.613281 C 274.261719 33.390625 271.652344 33.878906 269.078125 34.339844 C 268.511719 34.441406 267.910156 34.539062 267.375 34.328125 C 266.78125 34.089844 266.394531 33.519531 266.066406 32.972656 C 265.40625 31.859375 264.832031 30.695312 264.351562 29.492188 C 264.042969 28.71875 263.792969 27.773438 264.292969 27.105469 C 264.539062 26.777344 264.925781 26.582031 265.167969 26.257812 C 265.816406 25.40625 265.230469 24.179688 265.402344 23.125 C 265.507812 22.492188 265.882812 21.9375 266.238281 21.402344 C 268.304688 18.273438 269.953125 14.867188 271.121094 11.304688 C 271.609375 9.804688 272.046875 8.226562 273.082031 7.035156 C 274.6875 5.195312 277.359375 4.714844 279.800781 4.761719 C 284.855469 4.855469 289.855469 6.753906 293.695312 10.035156 C 294.730469 10.917969 295.675781 11.894531 296.703125 12.789062 C 297.582031 13.554688 298.515625 14.261719 299.449219 14.964844 C 301.664062 16.636719 303.882812 18.308594 306.097656 19.980469 C 307.78125 21.253906 309.46875 22.523438 311.152344 23.796875 C 313.289062 25.410156 315.433594 27.027344 317.773438 28.332031 C 321.921875 30.652344 322.757812 35.699219 325.160156 39.796875 C 326.625 42.296875 328.417969 44.019531 330.109375 46.371094 C 333.25 50.738281 336.390625 55.105469 339.527344 59.472656 C 341.613281 62.367188 343.695312 65.265625 345.667969 68.242188 C 356.269531 84.238281 363.535156 102.433594 366.867188 121.332031 C 367.269531 123.625 366.121094 125.863281 364.824219 127.792969 C 363.515625 129.734375 361.746094 131.308594 360.035156 132.902344 C 351.3125 141.015625 343.617188 150.175781 334.9375 158.332031 C 326.257812 166.488281 316.339844 173.753906 304.882812 177.023438 C 294.640625 179.941406 283.164062 179.714844 274.355469 185.707031 C 262.804688 193.570312 266.769531 212.378906 261.574219 225.347656 C 259.28125 231.070312 256.089844 236.441406 254.269531 242.332031 C 250.703125 253.871094 248.253906 265.84375 243.207031 276.816406 C 241.351562 280.851562 239.214844 284.800781 238.027344 289.082031 C 235.691406 297.488281 237.167969 306.464844 239.289062 314.925781 C 241.410156 323.390625 244.171875 331.8125 244.386719 340.535156 C 244.632812 350.679688 249.96875 360.199219 252.761719 369.953125 L 120.390625 369.953125 C 122.679688 362.914062 125.183594 356.574219 128.21875 349.816406 C 129.109375 347.828125 130.039062 345.832031 130.480469 343.699219 C 130.890625 341.691406 130.851562 339.625 130.984375 337.578125 C 131.683594 326.867188 137.082031 316.582031 135.972656 305.90625 C 135.5625 301.964844 136.207031 298.066406 134.90625 294.328125 C 133.601562 290.589844 131.625 287.128906 129.648438 283.695312 C 124.722656 275.121094 119.722656 266.523438 113.390625 258.925781 C 111.707031 261.164062 109.742188 263.421875 108.058594 265.65625 C 106.363281 267.90625 104.667969 270.160156 102.871094 272.328125 C 95.632812 281.082031 86.710938 288.527344 76.488281 293.472656 C 70.597656 296.324219 64.296875 298.347656 58.714844 301.757812 C 56.058594 303.378906 53.574219 305.316406 50.707031 306.523438 C 47.46875 307.886719 43.902344 308.257812 40.390625 308.363281 C 34.871094 308.535156 29.058594 308 24.460938 304.949219 C 22.648438 303.75 21.871094 301.570312 20.894531 299.628906 C 19.617188 297.09375 18.339844 294.554688 17.0625 292.019531 C 15.871094 289.648438 14.679688 287.277344 13.6875 284.820312 C 10.761719 277.550781 9.660156 269.691406 8.910156 261.894531 C 8.300781 255.570312 7.902344 249.222656 7.71875 242.871094 C 7.484375 234.816406 10.894531 226.667969 11.539062 218.636719 C 12.058594 212.171875 11.050781 205.492188 13.007812 199.308594 C 14.5625 194.402344 16.457031 189.171875 19.070312 184.734375 C 24.546875 175.425781 30.023438 166.121094 35.5 156.8125 C 35.890625 156.148438 36.292969 155.46875 36.886719 154.972656 C 38.132812 153.929688 39.976562 153.921875 41.519531 154.433594 C 43.0625 154.945312 44.414062 155.894531 45.851562 156.648438 C 49.433594 158.53125 53.582031 159.21875 57.035156 161.324219 C 57.585938 161.664062 58.136719 162.054688 58.449219 162.625 C 58.78125 163.230469 58.792969 163.953125 58.976562 164.621094 C 59.363281 166.050781 60.488281 167.132812 61.359375 168.328125 C 62.226562 169.523438 62.871094 171.144531 62.175781 172.449219 C 61.890625 172.984375 61.417969 173.386719 60.945312 173.765625 C 58.789062 175.472656 56.351562 176.914062 54.703125 179.113281 C 53.828125 180.277344 53.207031 181.621094 52.367188 182.816406 C 48 189.035156 38.515625 190.382812 34.910156 197.074219 C 33.542969 199.613281 33.25 202.589844 33.203125 205.476562 C 33.105469 211.371094 33.929688 217.277344 35.636719 222.917969 C 36.925781 227.179688 39.722656 230.441406 42.039062 234.242188 C 43.15625 236.070312 44.304688 237.882812 45.621094 239.566406 C 46.640625 240.863281 47.757812 242.089844 48.65625 243.472656 C 49.78125 245.210938 50.53125 247.164062 51.253906 249.109375 C 52.617188 246.5 53.347656 243.511719 54.257812 240.710938 C 55.613281 236.546875 58.351562 232.941406 61.574219 229.976562 C 64.792969 227.011719 68.496094 224.628906 72.195312 222.285156 C 72.019531 216.488281 74.800781 211.058594 77.398438 205.875 C 79.019531 202.636719 80.792969 199.460938 82.945312 196.546875 C 92.296875 183.875 108.988281 177.0625 124.539062 179.574219 C 125.808594 179.777344 127.308594 179.140625 128.226562 178.234375 C 131.722656 174.78125 135.222656 171.328125 138.71875 167.875 C 139.863281 166.746094 141.023438 165.597656 141.84375 164.214844 C 143.585938 161.277344 143.597656 157.566406 142.628906 154.289062 C 141.664062 151.015625 139.8125 148.082031 137.949219 145.21875 C 136.722656 143.328125 135.445312 141.40625 133.652344 140.035156 C 132.476562 139.132812 131.117188 138.5 129.839844 137.742188 C 124.898438 134.796875 121.113281 129.910156 115.6875 127.984375 C 108.320312 125.375 102.65625 118.148438 99.945312 110.816406 C 98.863281 107.898438 98.433594 104.738281 98.695312 101.636719 C 98.875 99.480469 99.386719 97.363281 99.894531 95.257812 C 100.605469 92.296875 101.320312 89.335938 102.035156 86.378906 C 102.304688 85.246094 102.582031 84.105469 103.089844 83.058594 C 104.136719 80.90625 106.0625 79.335938 107.9375 77.847656 C 112.058594 74.582031 116.238281 71.34375 120.84375 68.808594 C 125.453125 66.269531 130.535156 64.441406 135.789062 64.195312 C 138.359375 64.074219 140.9375 64.332031 143.488281 64.691406 C 146.742188 65.148438 150.007812 65.78125 152.984375 67.171875 C 155.957031 68.5625 158.429688 72.230469 160.683594 74.617188 Z M 160.683594 74.617188 " fill-opacity="1" fill-rule="nonzero"/></g></svg>